{
    "asset" : {
        "generator" : "Khronos glTF Blender I/O v1.7.33",
        "version" : "2.0"
    },
    "scene" : 0,
    "scenes" : [
        {
            "name" : "Scene",
            "nodes" : [
                0
            ]
        }
    ],
    "nodes" : [
        {
            "mesh" : 0,
            "name" : "planetH",
            "rotation" : [
                0.37951865792274475,
                -0.5966286063194275,
                0.5966286063194275,
                0.37951862812042236
            ],
            "scale" : [
                0.38085630536079407,
                0.38085630536079407,
                0.3808562755584717
            ],
            "translation" : [
                0.002103593898937106,
                0.03457966819405556,
                0
            ]
        }
    ],
    "materials" : [
        {
            "doubleSided" : true,
            "name" : "lambert1.007",
            "pbrMetallicRoughness" : {
                "baseColorTexture" : {
                    "index" : 0
                },
                "metallicFactor" : 0,
                "roughnessFactor" : 0.5527864098548889
            }
        }
    ],
    "meshes" : [
        {
            "name" : "Mesh.009",
            "primitives" : [
                {
                    "attributes" : {
                        "POSITION" : 0,
                        "NORMAL" : 1,
                        "TEXCOORD_0" : 2
                    },
                    "indices" : 3,
                    "material" : 0
                }
            ]
        }
    ],
    "textures" : [
        {
            "sampler" : 0,
            "source" : 0
        }
    ],
    "images" : [
        {
            "bufferView" : 4,
            "mimeType" : "image/png",
            "name" : "planetH_lambert1_BaseColor"
        }
    ],
    "accessors" : [
        {
            "bufferView" : 0,
            "componentType" : 5126,
            "count" : 5275,
            "max" : [
                4.697364807128906,
                4.566798210144043,
                5.280491828918457
            ],
            "min" : [
                -4.6349687576293945,
                -4.6887664794921875,
                -5.294412612915039
            ],
            "type" : "VEC3"
        },
        {
            "bufferView" : 1,
            "componentType" : 5126,
            "count" : 5275,
            "type" : "VEC3"
        },
        {
            "bufferView" : 2,
            "componentType" : 5126,
            "count" : 5275,
            "type" : "VEC2"
        },
        {
            "bufferView" : 3,
            "componentType" : 5123,
            "count" : 29460,
            "type" : "SCALAR"
        }
    ],
    "bufferViews" : [
        {
            "buffer" : 0,
            "byteLength" : 63300,
            "byteOffset" : 0
        },
        {
            "buffer" : 0,
            "byteLength" : 63300,
            "byteOffset" : 63300
        },
        {
            "buffer" : 0,
            "byteLength" : 42200,
            "byteOffset" : 126600
        },
        {
            "buffer" : 0,
            "byteLength" : 58920,
            "byteOffset" : 168800
        },
        {
            "buffer" : 0,
            "byteLength" : 119413,
            "byteOffset" : 227720
        }
    ],
    "samplers" : [
        {
            "magFilter" : 9729,
            "minFilter" : 9987
        }
    ],
    "buffers" : [
        {
            "byteLength" : 347136,
            "uri" : "data:application/octet-stream;base64,"
        }
    ]
}
