{
    "asset" : {
        "generator" : "Khronos glTF Blender I/O v1.7.33",
        "version" : "2.0"
    },
    "scene" : 0,
    "scenes" : [
        {
            "name" : "Scene",
            "nodes" : [
                0,
                1
            ]
        }
    ],
    "nodes" : [
        {
            "mesh" : 0,
            "name" : "_ZBrush_defualt_group",
            "rotation" : [
                0.7071068286895752,
                0,
                0,
                0.7071067094802856
            ],
            "scale" : [
                2.836082935333252,
                2.836082935333252,
                2.836082935333252
            ],
            "translation" : [
                0,
                0.2068476676940918,
                0
            ]
        },
        {
            "mesh" : 1,
            "name" : "planetJ",
            "rotation" : [
                0.7071068286895752,
                0,
                0,
                0.7071067094802856
            ],
            "scale" : [
                1.781128168106079,
                1.781128168106079,
                1.781128168106079
            ],
            "translation" : [
                0,
                -0.20831149816513062,
                0
            ]
        }
    ],
    "materials" : [
        {
            "doubleSided" : true,
            "name" : "Material.001",
            "pbrMetallicRoughness" : {
                "baseColorTexture" : {
                    "index" : 0
                },
                "metallicFactor" : 0,
                "roughnessFactor" : 0.5
            }
        }
    ],
    "meshes" : [
        {
            "name" : "Mesh.008",
            "primitives" : [
                {
                    "attributes" : {
                        "POSITION" : 0,
                        "NORMAL" : 1,
                        "TEXCOORD_0" : 2
                    },
                    "indices" : 3,
                    "material" : 0
                }
            ]
        },
        {
            "name" : "Mesh.011",
            "primitives" : [
                {
                    "attributes" : {
                        "POSITION" : 4,
                        "NORMAL" : 5,
                        "TEXCOORD_0" : 6
                    },
                    "indices" : 7,
                    "material" : 0
                }
            ]
        }
    ],
    "textures" : [
        {
            "sampler" : 0,
            "source" : 0
        }
    ],
    "images" : [
        {
            "bufferView" : 4,
            "mimeType" : "image/png",
            "name" : "planetJ_Material.001_BaseColor"
        }
    ],
    "accessors" : [
        {
            "bufferView" : 0,
            "componentType" : 5126,
            "count" : 9812,
            "max" : [
                0.6164989471435547,
                0.29583004117012024,
                0.7252657413482666
            ],
            "min" : [
                -0.5934872627258301,
                -0.298458456993103,
                -0.5535502433776855
            ],
            "type" : "VEC3"
        },
        {
            "bufferView" : 1,
            "componentType" : 5126,
            "count" : 9812,
            "type" : "VEC3"
        },
        {
            "bufferView" : 2,
            "componentType" : 5126,
            "count" : 9812,
            "type" : "VEC2"
        },
        {
            "bufferView" : 3,
            "componentType" : 5123,
            "count" : 49890,
            "type" : "SCALAR"
        },
        {
            "bufferView" : 5,
            "componentType" : 5126,
            "count" : 6012,
            "max" : [
                1.319898009300232,
                1.3251451253890991,
                0.12763944268226624
            ],
            "min" : [
                -1.3600645065307617,
                -1.3513246774673462,
                -0.174471914768219
            ],
            "type" : "VEC3"
        },
        {
            "bufferView" : 6,
            "componentType" : 5126,
            "count" : 6012,
            "type" : "VEC3"
        },
        {
            "bufferView" : 7,
            "componentType" : 5126,
            "count" : 6012,
            "type" : "VEC2"
        },
        {
            "bufferView" : 8,
            "componentType" : 5123,
            "count" : 28512,
            "type" : "SCALAR"
        }
    ],
    "bufferViews" : [
        {
            "buffer" : 0,
            "byteLength" : 117744,
            "byteOffset" : 0
        },
        {
            "buffer" : 0,
            "byteLength" : 117744,
            "byteOffset" : 117744
        },
        {
            "buffer" : 0,
            "byteLength" : 78496,
            "byteOffset" : 235488
        },
        {
            "buffer" : 0,
            "byteLength" : 99780,
            "byteOffset" : 313984
        },
        {
            "buffer" : 0,
            "byteLength" : 183390,
            "byteOffset" : 413764
        },
        {
            "buffer" : 0,
            "byteLength" : 72144,
            "byteOffset" : 597156
        },
        {
            "buffer" : 0,
            "byteLength" : 72144,
            "byteOffset" : 669300
        },
        {
            "buffer" : 0,
            "byteLength" : 48096,
            "byteOffset" : 741444
        },
        {
            "buffer" : 0,
            "byteLength" : 57024,
            "byteOffset" : 789540
        }
    ],
    "samplers" : [
        {
            "magFilter" : 9729,
            "minFilter" : 9987
        }
    ],
    "buffers" : [
        {
            "byteLength" : 846564,
            "uri" : "data:application/octet-stream;base64,"
        }
    ]
}
