{
    "asset" : {
        "generator" : "Khronos glTF Blender I/O v1.7.33",
        "version" : "2.0"
    },
    "scene" : 0,
    "scenes" : [
        {
            "name" : "Scene",
            "nodes" : [
                0,
                1
            ]
        }
    ],
    "nodes" : [
        {
            "name" : "nurbsCircle1",
            "rotation" : [
                0.7071068286895752,
                0,
                0,
                0.7071067094802856
            ],
            "scale" : [
                0.03755684569478035,
                0.03755684569478035,
                0.03755684569478035
            ],
            "translation" : [
                0,
                0.01623179204761982,
                0.000751154322642833
            ]
        },
        {
            "mesh" : 0,
            "name" : "_Group12113",
            "rotation" : [
                0.7071068286895752,
                0,
                0,
                0.7071067094802856
            ],
            "scale" : [
                1.9801467657089233,
                1.9801467657089233,
                1.9801467657089233
            ],
            "translation" : [
                7.858499884605408e-06,
                -0.00010263151489198208,
                0.0001463979424443096
            ]
        }
    ],
    "materials" : [
        {
            "doubleSided" : true,
            "name" : "PlanetASG",
            "pbrMetallicRoughness" : {
                "baseColorTexture" : {
                    "index" : 0
                },
                "metallicFactor" : 0,
                "roughnessFactor" : 0.6490908861160278
            }
        }
    ],
    "meshes" : [
        {
            "name" : "Mesh.002",
            "primitives" : [
                {
                    "attributes" : {
                        "POSITION" : 0,
                        "NORMAL" : 1,
                        "TEXCOORD_0" : 2
                    },
                    "indices" : 3,
                    "material" : 0
                }
            ]
        }
    ],
    "textures" : [
        {
            "sampler" : 0,
            "source" : 0
        }
    ],
    "images" : [
        {
            "bufferView" : 4,
            "mimeType" : "image/png",
            "name" : "1_PlanetASG_BaseColor"
        }
    ],
    "accessors" : [
        {
            "bufferView" : 0,
            "componentType" : 5126,
            "count" : 9997,
            "max" : [
                1.1283433437347412,
                1.0816843509674072,
                0.45516347885131836
            ],
            "min" : [
                -1.068906307220459,
                -1.100801944732666,
                -0.7565138339996338
            ],
            "type" : "VEC3"
        },
        {
            "bufferView" : 1,
            "componentType" : 5126,
            "count" : 9997,
            "type" : "VEC3"
        },
        {
            "bufferView" : 2,
            "componentType" : 5126,
            "count" : 9997,
            "type" : "VEC2"
        },
        {
            "bufferView" : 3,
            "componentType" : 5123,
            "count" : 57624,
            "type" : "SCALAR"
        }
    ],
    "bufferViews" : [
        {
            "buffer" : 0,
            "byteLength" : 119964,
            "byteOffset" : 0
        },
        {
            "buffer" : 0,
            "byteLength" : 119964,
            "byteOffset" : 119964
        },
        {
            "buffer" : 0,
            "byteLength" : 79976,
            "byteOffset" : 239928
        },
        {
            "buffer" : 0,
            "byteLength" : 115248,
            "byteOffset" : 319904
        },
        {
            "buffer" : 0,
            "byteLength" : 166701,
            "byteOffset" : 435152
        }
    ],
    "samplers" : [
        {
            "magFilter" : 9729,
            "minFilter" : 9987
        }
    ],
    "buffers" : [
        {
            "byteLength" : 601856,
            "uri" : "data:application/octet-stream;base64,"
        }
    ]
}
